<svg width="25" height="25" viewBox="0 0 25 25" fill="none" xmlns="http://www.w3.org/2000/svg">
<g clip-path="url(#clip0_144_6145)">
<path d="M9.01807 5.56958H7.01807C6.48763 5.56958 5.97893 5.78029 5.60385 6.15537C5.22878 6.53044 5.01807 7.03915 5.01807 7.56958V19.5696C5.01807 20.1 5.22878 20.6087 5.60385 20.9838C5.97893 21.3589 6.48763 21.5696 7.01807 21.5696H17.0181C17.5485 21.5696 18.0572 21.3589 18.4323 20.9838C18.8074 20.6087 19.0181 20.1 19.0181 19.5696V7.56958C19.0181 7.03915 18.8074 6.53044 18.4323 6.15537C18.0572 5.78029 17.5485 5.56958 17.0181 5.56958H15.0181" stroke="#1C4835" stroke-width="2" stroke-linecap="round" stroke-linejoin="round"/>
<path d="M13.0181 3.56958H11.0181C9.9135 3.56958 9.01807 4.46501 9.01807 5.56958C9.01807 6.67415 9.9135 7.56958 11.0181 7.56958H13.0181C14.1226 7.56958 15.0181 6.67415 15.0181 5.56958C15.0181 4.46501 14.1226 3.56958 13.0181 3.56958Z" stroke="#1C4835" stroke-width="2" stroke-linecap="round" stroke-linejoin="round"/>
<path d="M14.0181 11.5696H11.5181C11.1202 11.5696 10.7387 11.7276 10.4574 12.0089C10.1761 12.2902 10.0181 12.6718 10.0181 13.0696C10.0181 13.4674 10.1761 13.8489 10.4574 14.1302C10.7387 14.4115 11.1202 14.5696 11.5181 14.5696H12.5181C12.9159 14.5696 13.2974 14.7276 13.5787 15.0089C13.86 15.2902 14.0181 15.6718 14.0181 16.0696C14.0181 16.4674 13.86 16.8489 13.5787 17.1302C13.2974 17.4115 12.9159 17.5696 12.5181 17.5696H10.0181" stroke="#1C4835" stroke-width="2" stroke-linecap="round" stroke-linejoin="round"/>
<path d="M12.0181 10.5696V11.5696M12.0181 17.5696V18.5696V17.5696Z" stroke="#1C4835" stroke-width="2" stroke-linecap="round" stroke-linejoin="round"/>
</g>
<defs>
<clipPath id="clip0_144_6145">
<rect width="24" height="24" fill="white" transform="translate(0.0180664 0.56958)"/>
</clipPath>
</defs>
</svg>
