<svg width="29" height="29" viewBox="0 0 29 29" fill="none" xmlns="http://www.w3.org/2000/svg">
<path d="M16.4705 13.036C16.7533 13.2029 17.0637 13.3285 17.3928 13.4097C17.7181 13.4896 18.0562 13.5302 18.3988 13.5302C18.87 13.5302 19.316 13.4528 19.7255 13.2999C20.1401 13.1451 20.5045 12.9123 20.8092 12.6071C21.1126 12.3032 21.3543 11.9207 21.5278 11.4708C21.6995 11.0242 21.7869 10.5027 21.7869 9.92026C21.7869 9.33784 21.7001 8.81633 21.5278 8.36968C21.3549 7.92176 21.121 7.54046 20.8324 7.2372C20.5405 6.93076 20.1954 6.69919 19.8058 6.54819C19.4215 6.3991 19.0126 6.3236 18.5923 6.3236C17.9501 6.3236 17.3954 6.47523 16.9435 6.77342C16.7469 6.90348 16.5746 7.04623 16.4287 7.2004L16.439 4.59093C16.439 4.2883 16.3342 4.04468 16.1266 3.86513C15.928 3.69383 15.6805 3.60754 15.3912 3.60754H15.1663V11.441L15.1778 11.4753C15.298 11.8318 15.4754 12.144 15.7043 12.4016C15.9286 12.6547 16.187 12.8685 16.4717 13.036H16.4705ZM18.5331 7.03354C18.8082 7.03354 19.0621 7.08303 19.289 7.1801C19.5082 7.27399 19.7024 7.43007 19.8663 7.64324C20.0353 7.86403 20.1716 8.16285 20.2706 8.53083C20.3721 8.90832 20.4235 9.37591 20.4235 9.92026C20.4235 10.4646 20.3721 10.943 20.2712 11.3154C20.1722 11.6789 20.034 11.9778 19.8611 12.203C19.6921 12.4225 19.4941 12.5754 19.2569 12.6712C19.012 12.7695 18.7388 12.8197 18.4444 12.8197C18.15 12.8197 17.8749 12.7715 17.6294 12.6763C17.3877 12.583 17.1782 12.4453 17.0053 12.2664C16.8317 12.0869 16.6929 11.8572 16.5926 11.5831C16.491 11.3046 16.4396 10.9709 16.4396 10.5928V9.23506C16.4396 8.93307 16.491 8.64566 16.5919 8.38046C16.6929 8.11527 16.8362 7.87799 17.0175 7.6756C17.1962 7.47638 17.4166 7.31777 17.6718 7.20421C17.9276 7.09064 18.2182 7.03354 18.5351 7.03354H18.5331Z" fill="#1C4835"/>
<path d="M17.3627 14.6424C17.0015 14.7611 16.6852 14.9362 16.4243 15.162C16.1678 15.3834 15.9512 15.6385 15.7815 15.9195C15.6124 16.1987 15.4852 16.5051 15.4029 16.83C15.3219 17.151 15.2808 17.4847 15.2808 17.8229C15.2808 18.2879 15.3592 18.7282 15.5141 19.1324C15.6709 19.5416 15.9068 19.9013 16.216 20.202C16.5239 20.5015 16.9115 20.7401 17.3672 20.9114C17.8197 21.0808 18.3481 21.167 18.9382 21.167C19.5282 21.167 20.0566 21.0814 20.5091 20.9114C20.9629 20.7407 21.3492 20.5098 21.6565 20.2249C21.9669 19.9368 22.2016 19.5962 22.3545 19.2117C22.5056 18.8323 22.5821 18.4288 22.5821 18.0138C22.5821 17.38 22.4285 16.8325 22.1264 16.3865C21.9946 16.1924 21.85 16.0223 21.6938 15.8783L24.3375 15.8885C24.6441 15.8885 24.891 15.785 25.0729 15.5801C25.2464 15.3841 25.3338 15.1398 25.3338 14.8543V14.6323H17.3974L17.3627 14.6437V14.6424ZM21.7137 18.7016C21.6179 18.9179 21.4604 19.1095 21.2445 19.2713C21.0208 19.4382 20.718 19.5727 20.3452 19.6704C19.9628 19.7706 19.489 19.8214 18.9375 19.8214C18.386 19.8214 17.9014 19.7706 17.5241 19.671C17.1557 19.5733 16.853 19.4369 16.6248 19.2662C16.4024 19.0994 16.2475 18.904 16.1504 18.6699C16.0508 18.4281 16 18.1585 16 17.8679C16 17.5774 16.0489 17.3058 16.1453 17.0635C16.2398 16.8249 16.3793 16.6181 16.5605 16.4474C16.7424 16.2755 16.9751 16.1391 17.2528 16.0401C17.535 15.9399 17.8731 15.8891 18.2562 15.8891H19.6317C19.9377 15.8891 20.2289 15.9399 20.4976 16.0395C20.7662 16.1391 21.0066 16.2805 21.2117 16.4595C21.4135 16.6358 21.5742 16.8534 21.6893 17.1053C21.8043 17.3578 21.8622 17.6446 21.8622 17.9574C21.8622 18.2289 21.812 18.4795 21.7137 18.7035V18.7016Z" fill="#1C4835"/>
<path d="M13.2616 15.8301C13.0373 15.5769 12.7789 15.3631 12.4942 15.1956C12.2113 15.0288 11.9009 14.9032 11.5718 14.822C11.2465 14.742 10.9084 14.7014 10.5658 14.7014C10.0947 14.7014 9.64858 14.7788 9.23913 14.9317C8.82453 15.0865 8.46008 15.3194 8.1554 15.6245C7.85201 15.9284 7.61032 16.311 7.43677 16.7608C7.26515 17.2075 7.17773 17.729 7.17773 18.3114C7.17773 18.8938 7.26451 19.4153 7.43677 19.862C7.60968 20.3099 7.84365 20.6912 8.13226 20.9945C8.42408 21.3009 8.76926 21.5325 9.15878 21.6835C9.54316 21.8326 9.95197 21.9081 10.3723 21.9081C11.0145 21.9081 11.5692 21.7564 12.0211 21.4582C12.2178 21.3282 12.39 21.1854 12.5359 21.0313L12.5257 23.6407C12.5257 23.9434 12.6304 24.187 12.838 24.3665C13.0367 24.5378 13.2841 24.6241 13.5734 24.6241H13.7984V16.7906L13.7868 16.7564C13.6666 16.3998 13.4892 16.0877 13.2604 15.8301H13.2616ZM10.4315 21.1975C10.1564 21.1975 9.90247 21.148 9.67557 21.0509C9.45639 20.957 9.26227 20.801 9.09836 20.5878C8.92931 20.367 8.79304 20.0682 8.69405 19.7002C8.59249 19.3227 8.54107 18.8551 8.54107 18.3108C8.54107 17.7664 8.59249 17.288 8.69341 16.9156C8.7924 16.5521 8.93059 16.2533 9.1035 16.028C9.27255 15.8085 9.47053 15.6556 9.70771 15.5598C9.95261 15.4615 10.2258 15.4114 10.5202 15.4114C10.8146 15.4114 11.0897 15.4596 11.3352 15.5547C11.5769 15.648 11.7865 15.7857 11.9594 15.9646C12.1329 16.1441 12.2718 16.3738 12.372 16.6479C12.4736 16.9264 12.525 17.2601 12.525 17.6383V18.996C12.525 19.298 12.4736 19.5854 12.3727 19.8506C12.2718 20.1158 12.1284 20.353 11.9472 20.5554C11.7685 20.7546 11.548 20.9133 11.2928 21.0268C11.037 21.1404 10.7464 21.1975 10.4296 21.1975H10.4315Z" fill="#1C4835"/>
<path d="M11.6791 13.2936C12.0404 13.175 12.3566 12.9999 12.6176 12.774C12.874 12.5526 13.0907 12.2975 13.2603 12.0165C13.4294 11.7373 13.5567 11.4309 13.6389 11.106C13.7199 10.785 13.7611 10.4513 13.7611 10.1131C13.7611 9.64809 13.6827 9.20778 13.5277 8.80364C13.3709 8.39443 13.135 8.0347 12.8258 7.73397C12.5179 7.43451 12.1303 7.19596 11.6746 7.02466C11.2221 6.85527 10.6937 6.76898 10.1037 6.76898C9.51359 6.76898 8.98522 6.85463 8.53271 7.02466C8.0789 7.19533 7.69259 7.42627 7.38535 7.71113C7.07488 7.99917 6.84027 8.33986 6.68729 8.72434C6.53624 9.10373 6.45974 9.50724 6.45974 9.92217C6.45974 10.556 6.61337 11.1035 6.91547 11.5495C7.04724 11.7437 7.19187 11.9137 7.34807 12.0577L4.70432 12.0476C4.39771 12.0476 4.15088 12.151 3.96898 12.3559C3.79543 12.5519 3.70801 12.7962 3.70801 13.0817V13.3038H11.6444L11.6791 13.2923V13.2936ZM7.3275 9.23443C7.42327 9.01809 7.58075 8.82648 7.79672 8.6647C8.02041 8.49784 8.32316 8.36334 8.69597 8.26563C9.07843 8.16539 9.55215 8.11464 10.1037 8.11464C10.6552 8.11464 11.1398 8.16539 11.5171 8.265C11.8854 8.3627 12.1882 8.49911 12.4164 8.66978C12.6388 8.83663 12.7937 9.03204 12.8907 9.26615C12.9904 9.50788 13.0412 9.77751 13.0412 10.0681C13.0412 10.3587 12.9923 10.6302 12.8959 10.8726C12.8014 11.1111 12.6619 11.3179 12.4807 11.4886C12.2987 11.6605 12.0661 11.7969 11.7884 11.8959C11.5062 11.9962 11.1681 12.0469 10.785 12.0469H9.40946C9.10349 12.0469 8.81231 11.9962 8.54363 11.8966C8.27495 11.7969 8.03455 11.6555 7.82951 11.4766C7.62767 11.3002 7.46698 11.0826 7.35192 10.8307C7.23686 10.5782 7.17901 10.2914 7.17901 9.97863C7.17901 9.70709 7.22915 9.45649 7.3275 9.23253V9.23443Z" fill="#1C4835"/>
<path d="M10.0627 1.36733C10.0904 2.67238 10.1225 4.1519 11.2255 5.19556C11.6298 5.57813 12.1254 5.92834 12.7856 6.29759C12.8788 6.35025 12.9822 6.37626 13.0857 6.37626C13.1821 6.37626 13.2792 6.35342 13.3679 6.30774C13.5517 6.21257 13.6732 6.03429 13.6919 5.83C13.7504 5.19112 13.8339 3.59042 13.3448 2.51567C12.8788 1.49231 11.6748 0.567292 10.9986 0.10732C10.809 -0.0214717 10.566 -0.0341606 10.3636 0.0736948C10.1611 0.18155 10.039 0.390282 10.0441 0.617413L10.0563 1.12053C10.0582 1.20237 10.0602 1.28485 10.0621 1.36859L10.0627 1.36733ZM12.5239 2.87921C12.8415 3.57646 12.8556 4.63471 12.8267 5.28882C12.4295 5.04329 12.1132 4.80474 11.8484 4.55477C11.0141 3.76552 10.9883 2.53724 10.9626 1.34893C10.9613 1.29246 10.9601 1.236 10.9588 1.17953C11.4884 1.58684 12.2321 2.23905 12.5239 2.87921Z" fill="#1C4835"/>
<path d="M28.8047 10.0097C28.6973 9.80859 28.4871 9.68678 28.257 9.68868L27.7473 9.69566C27.6644 9.69693 27.5802 9.69756 27.496 9.69883C26.1738 9.71279 24.6748 9.72865 23.6059 10.8059C23.2144 11.2006 22.8545 11.6865 22.4726 12.3343C22.3685 12.512 22.3621 12.7264 22.4566 12.9091C22.5511 13.0918 22.7304 13.213 22.9374 13.234C23.1887 13.2593 23.5872 13.2892 24.0449 13.2892C24.7642 13.2892 25.63 13.2143 26.2985 12.9256C27.3404 12.4764 28.2898 11.2976 28.7629 10.6353C28.8953 10.45 28.9114 10.2096 28.804 10.0091L28.8047 10.0097ZM25.9385 12.1123C25.2289 12.4187 24.1567 12.4212 23.4947 12.3857C23.7479 11.9962 23.9922 11.6865 24.2486 11.4277C25.0566 10.6131 26.3017 10.5997 27.5056 10.5871C27.5641 10.5871 27.622 10.5858 27.6772 10.5852C27.2594 11.1035 26.5903 11.8312 25.9385 12.1123Z" fill="#1C4835"/>
<path d="M19.1927 27.1423C19.1651 25.8372 19.1329 24.3577 18.0299 23.314C17.6256 22.9314 17.13 22.5812 16.4699 22.2114C16.2893 22.1105 16.0714 22.1067 15.8875 22.2018C15.7037 22.297 15.5822 22.4753 15.5636 22.6796C15.5051 23.3185 15.4215 24.9198 15.9107 25.9939C16.3767 27.0173 17.5806 27.9423 18.2568 28.4023C18.361 28.4733 18.4812 28.5088 18.602 28.5088C18.701 28.5088 18.8006 28.4847 18.8919 28.4359C19.0944 28.328 19.2165 28.1193 19.2114 27.8922L19.1991 27.3891C19.1972 27.3072 19.1953 27.2247 19.1934 27.141L19.1927 27.1423ZM16.7315 25.6304C16.414 24.9331 16.3998 23.8749 16.4288 23.2208C16.826 23.4663 17.1423 23.7048 17.4071 23.9554C18.2414 24.7447 18.2671 25.973 18.2928 27.1613C18.2941 27.2177 18.2954 27.2742 18.2967 27.3307C17.767 26.9234 17.0233 26.2712 16.7315 25.631V25.6304Z" fill="#1C4835"/>
<path d="M5.9379 14.7402C5.29127 14.6755 3.67018 14.5765 2.57617 15.0479C1.53423 15.4971 0.584841 16.6759 0.111756 17.3382C-0.0206566 17.5235 -0.0367261 17.7639 0.070618 17.9644C0.176677 18.163 0.382366 18.2854 0.609267 18.2854C0.611838 18.2854 0.615052 18.2854 0.618266 18.2854L1.12799 18.2785C1.21091 18.2772 1.29447 18.2766 1.37867 18.2753C2.70087 18.2613 4.20047 18.2455 5.26941 17.1682C5.66087 16.7736 6.02082 16.2876 6.40263 15.6398C6.50676 15.4622 6.51319 15.2477 6.4187 15.065C6.32421 14.8823 6.14488 14.7611 5.9379 14.7402ZM4.62664 16.5464C3.81866 17.3611 2.5736 17.3744 1.36967 17.3871C1.31182 17.3871 1.25397 17.3883 1.19805 17.389C1.61586 16.8706 2.28499 16.1429 2.93677 15.8619C3.46963 15.6316 4.2069 15.5732 4.82204 15.5732C5.0258 15.5732 5.21606 15.5795 5.38126 15.5884C5.128 15.978 4.88375 16.2876 4.62728 16.5464H4.62664Z" fill="#1C4835"/>
</svg>
