<svg width="139" height="29" viewBox="0 0 139 29" fill="none" xmlns="http://www.w3.org/2000/svg">
<path d="M6.09748 1.23706C9.2998 1.23706 12.4115 2.19126 12.4115 6.0379C12.4115 8.24449 11.052 9.61616 9.08833 10.3616C11.6864 10.7195 13.4387 12.4191 13.4387 15.2221C13.4387 19.0687 10.8405 21.0666 6.06727 21.0666H0.0251465V1.23706H6.09748ZM9.93487 6.27645C9.93487 3.62257 8.06181 3.11565 5.58454 3.11565H2.41242V9.61616H5.34286C8.6056 9.61616 9.93487 8.24449 9.93487 6.27645ZM10.8708 15.2824C10.8708 12.8671 9.14875 11.4656 6.18811 11.4656H2.41179V19.1588H6.06727C9.72275 19.1588 10.8708 17.489 10.8708 15.2824Z" fill="#1C4835"/>
<path d="M16.9734 16.6832V0.342468H19.36V16.5639C19.36 18.86 19.783 19.6353 21.2633 19.6353C21.9581 19.6353 22.6832 19.3967 23.2572 19.1283L23.801 20.7684C23.1666 21.1859 21.9581 21.484 20.7195 21.484C17.1849 21.484 16.9734 19.188 16.9734 16.6832Z" fill="#1C4835"/>
<path d="M24.9187 13.5522C24.9187 7.37974 28.6346 5.82916 31.6255 5.82916C33.71 5.82916 37.8186 6.48518 37.8186 13.2242C37.8186 19.0389 34.9184 21.4841 31.1119 21.4841C27.3053 21.4841 24.9187 18.9196 24.9187 13.5522ZM35.432 13.7318C35.432 10.1535 34.3746 7.67857 31.4442 7.67857C28.5138 7.67857 27.3053 10.0343 27.3053 13.2547C27.3053 16.2068 27.8793 19.6956 31.3233 19.6956C34.1631 19.6956 35.432 16.9821 35.432 13.7318Z" fill="#1C4835"/>
<path d="M40.7183 13.5522C40.7183 7.37974 44.4342 5.82916 47.425 5.82916C49.5095 5.82916 53.6182 6.48518 53.6182 13.2242C53.6182 19.0389 50.718 21.4841 46.9114 21.4841C43.1049 21.4841 40.7183 18.9196 40.7183 13.5522ZM51.2316 13.7318C51.2316 10.1535 50.1742 7.67857 47.2438 7.67857C44.3133 7.67857 43.1049 10.0343 43.1049 13.2547C43.1049 16.2068 43.6789 19.6956 47.1229 19.6956C49.9627 19.6956 51.2316 16.9821 51.2316 13.7318Z" fill="#1C4835"/>
<path d="M57.0923 6.24663H59.0862L59.3883 8.36377C60.4457 6.72373 62.1375 5.82916 63.9803 5.82916C66.0044 5.82916 67.4847 6.63427 68.3004 8.5725C69.2672 6.75355 71.0798 5.82916 72.9831 5.82916C76.0948 5.82916 77.8168 7.67793 77.8168 11.0773V21.0666H75.4603V11.7035C75.4603 9.58634 75.0072 7.67793 72.3789 7.67793C70.2943 7.67793 68.7536 9.40743 68.7536 11.2264V21.0666H66.3972V11.7333C66.3972 9.82489 66.1253 7.67793 63.3157 7.67793C61.1707 7.67793 59.6904 9.49688 59.6904 11.3755V21.0666H57.334V8.48304L57.0923 6.24663Z" fill="#1C4835"/>
<path d="M80.8682 20.0534L81.6839 18.3537C82.56 18.9203 84.1309 19.6955 85.8831 19.6955C87.4541 19.6955 88.874 18.8904 88.874 17.1609C88.874 15.4314 87.4843 14.8947 85.7623 14.4474C83.5871 13.8212 81.2005 13.1652 81.2005 10.2131C81.2005 7.26108 83.6173 5.82977 86.2457 5.82977C88.3906 5.82977 90.2032 6.75416 91.2606 7.82764L89.9918 9.25894C88.9948 8.33456 87.6958 7.6189 86.1852 7.6189C84.856 7.6189 83.4361 8.2451 83.4361 10.0044C83.4361 11.6445 84.856 12.1216 86.6082 12.6583C88.7833 13.3143 91.17 13.9703 91.17 16.9522C91.17 19.9341 88.9948 21.4847 85.9133 21.4847C83.4663 21.4847 81.5026 20.5901 80.8682 20.0534Z" fill="#1C4835"/>
<path d="M93.6775 14.089C93.6775 9.07939 96.1548 5.82914 100.747 5.82914C101.955 5.82914 102.892 6.06769 103.858 6.36588V0.342468H106.185V18.3829L106.426 21.0666H104.312L104.1 19.2774L104.01 19.2476C102.801 20.8877 101.14 21.5139 99.5686 21.5139C95.1578 21.5139 93.6775 18.0549 93.6775 14.089ZM103.858 16.5049V8.33456C103.164 7.97673 102.046 7.6189 100.656 7.6189C97.3632 7.6189 96.0037 10.3026 96.0037 13.8212C96.0037 16.8926 96.8496 19.6955 99.9311 19.6955C102.378 19.6955 103.858 17.9959 103.858 16.5049Z" fill="#1C4835"/>
<path d="M109.99 14.2977C109.99 9.01978 112.528 5.82916 117.543 5.82916C118.48 5.82916 120.594 6.06771 122.528 6.78337V18.4724L122.77 21.0666H120.655L120.443 19.3073L120.353 19.2775C119.537 20.4702 118.147 21.5139 115.882 21.5139C111.41 21.5139 109.99 18.2338 109.99 14.2977ZM120.202 16.3552V8.18485C119.658 7.91648 118.449 7.64811 117.181 7.64811C113.555 7.64811 112.317 10.5704 112.317 14.3872C112.317 16.9516 113.102 19.6949 116.274 19.6949C118.842 19.6949 120.202 18.0251 120.202 16.3552Z" fill="#1C4835"/>
<path d="M127.815 25.2419C127.815 22.8265 129.658 21.097 131.138 20.1428C128.721 19.8745 126.908 18.7115 126.908 15.2525V6.24725H129.265V14.7456C129.265 16.9224 129.476 18.6221 132.679 18.6221C134.612 18.6221 136.334 17.1908 136.334 15.1333V6.24725H138.66V20.441C138.66 21.7531 138.509 23.5124 138.177 24.5858C137.482 27.359 135.579 28.999 132.377 28.999C129.174 28.999 127.815 27.5379 127.815 25.2419ZM136.334 21.7232V19.0097C132.709 20.4708 129.99 22.1109 129.99 24.9139C129.99 26.4346 130.957 27.2099 132.588 27.2099C135.337 27.2099 136.334 24.9437 136.334 21.7232Z" fill="#1C4835"/>
</svg>
