<svg width="23" height="24" viewBox="0 0 23 24" fill="none" xmlns="http://www.w3.org/2000/svg">
<path d="M6.10296 16.2302V18.3564M9.3795 8.27474C8.63137 7.58415 7.31384 7.10381 6.10296 7.07373L9.3795 8.27474ZM2.82642 14.8279C3.5303 15.6942 4.83905 16.1883 6.10296 16.2302L2.82642 14.8279ZM6.10296 7.07373C4.66223 7.03794 3.3725 7.63958 3.3725 9.28292C3.3725 12.3074 9.3795 10.7952 9.3795 13.8196C9.3795 15.5447 7.78073 16.2858 6.10296 16.2302V7.07373ZM6.10296 7.07373V5.25024V7.07373Z" stroke="#1C4835" stroke-width="1.16212" stroke-linecap="round" stroke-linejoin="round"/>
<path d="M19.6772 11.8032L16.0824 15.5478M12.188 11.8032H19.6772H12.188ZM19.6772 11.8032L16.0824 8.05859L19.6772 11.8032Z" stroke="#1C4835" stroke-width="1.16212" stroke-linecap="round" stroke-linejoin="round"/>
</svg>
