<svg width="20" height="19" viewBox="0 0 20 19" fill="none" xmlns="http://www.w3.org/2000/svg">
<path d="M3.88159 5.83245H16.0465" stroke="#1C4835" stroke-width="1.52062" stroke-linecap="round" stroke-linejoin="round"/>
<path d="M8.44336 8.87369V13.4355" stroke="#1C4835" stroke-width="1.52062" stroke-linecap="round" stroke-linejoin="round"/>
<path d="M11.4846 8.87369V13.4355" stroke="#1C4835" stroke-width="1.52062" stroke-linecap="round" stroke-linejoin="round"/>
<path d="M4.64185 5.83245L5.40216 14.9562C5.40216 15.3595 5.56236 15.7462 5.84753 16.0314C6.13271 16.3166 6.51948 16.4768 6.92277 16.4768H13.0052C13.4085 16.4768 13.7953 16.3166 14.0805 16.0314C14.3657 15.7462 14.5259 15.3595 14.5259 14.9562L15.2862 5.83245" stroke="#1C4835" stroke-width="1.52062" stroke-linecap="round" stroke-linejoin="round"/>
<path d="M7.68311 5.83245V3.55152C7.68311 3.34988 7.76321 3.15649 7.9058 3.0139C8.04838 2.87132 8.24177 2.79121 8.44341 2.79121H11.4847C11.6863 2.79121 11.8797 2.87132 12.0223 3.0139C12.1649 3.15649 12.245 3.34988 12.245 3.55152V5.83245" stroke="#1C4835" stroke-width="1.52062" stroke-linecap="round" stroke-linejoin="round"/>
</svg>
