<svg width="25" height="25" viewBox="0 0 25 25" fill="none" xmlns="http://www.w3.org/2000/svg">
<path d="M10.0273 22.8555C9.48823 22.8555 8.95386 22.6539 8.54605 22.2461L3.06167 16.7617C2.24604 15.9414 2.24604 14.6102 3.06167 13.7945L14.5742 2.27266C14.846 2.00547 15.2023 1.85547 15.582 1.85547H21.357C21.9148 1.86016 22.4398 2.08047 22.8335 2.47422C23.2273 2.87266 23.4429 3.39766 23.4382 3.95547V9.71641C23.4382 10.0961 23.2929 10.4523 23.0257 10.7242L11.5132 22.2414C11.1007 22.6492 10.5664 22.8555 10.0273 22.8555ZM15.6148 3.35547L4.12104 14.8492C3.89136 15.0836 3.89136 15.4633 4.12104 15.6977L9.60542 21.182C9.8398 21.4117 10.2195 21.4117 10.4539 21.182L21.9429 9.69297V3.95547C21.9429 3.62266 21.6804 3.35547 21.3523 3.35547H21.3476H15.6148Z" fill="#1C4835"/>
<path d="M18.9429 7.85547C18.1132 7.85547 17.4429 7.18516 17.4429 6.35547C17.4429 5.52578 18.1132 4.85547 18.9429 4.85547C19.7726 4.85547 20.4429 5.52578 20.4429 6.35547C20.4429 7.18516 19.7726 7.85547 18.9429 7.85547Z" fill="#1C4835"/>
</svg>
