<svg width="25" height="25" viewBox="0 0 25 25" fill="none" xmlns="http://www.w3.org/2000/svg">
<path fill-rule="evenodd" clip-rule="evenodd" d="M7.35522 3.05273C6.9574 3.05273 6.57587 3.21077 6.29456 3.49207C6.01326 3.77338 5.85522 4.15491 5.85522 4.55273V19.5527C5.85522 19.9506 6.01326 20.3321 6.29456 20.6134C6.57587 20.8947 6.9574 21.0527 7.35522 21.0527H17.8552C18.253 21.0527 18.6346 20.8947 18.9159 20.6134C19.1972 20.3321 19.3552 19.9506 19.3552 19.5527V10.4239C19.3552 10.4239 19.3552 10.4239 19.3552 10.4238C19.3552 10.2251 19.2762 10.0344 19.1357 9.89385C19.1357 9.89383 19.1356 9.89381 19.1356 9.89379L12.5142 3.27234C12.3736 3.13178 12.1829 3.05279 11.9841 3.05273C11.9841 3.05273 11.9841 3.05273 11.984 3.05273H7.35522ZM5.2339 2.43141C5.79651 1.8688 6.55958 1.55273 7.35522 1.55273H11.9842C12.5808 1.55282 13.1529 1.7898 13.5747 2.21156L13.5748 2.21162L20.1964 8.83325C20.6182 9.25511 20.8551 9.82718 20.8552 10.4237V19.5527C20.8552 20.3484 20.5392 21.1114 19.9765 21.6741C19.4139 22.2367 18.6509 22.5527 17.8552 22.5527H7.35522C6.55958 22.5527 5.79651 22.2367 5.2339 21.6741C4.6713 21.1114 4.35522 20.3484 4.35522 19.5527V4.55273C4.35522 3.75708 4.6713 2.99402 5.2339 2.43141Z" fill="#1C4835"/>
<path fill-rule="evenodd" clip-rule="evenodd" d="M12.6052 1.92773C13.0194 1.92773 13.3552 2.26352 13.3552 2.67773V8.30273C13.3552 8.50165 13.4342 8.69241 13.5749 8.83306C13.7155 8.97372 13.9063 9.05273 14.1052 9.05273H19.7302C20.1444 9.05273 20.4802 9.38852 20.4802 9.80273C20.4802 10.2169 20.1444 10.5527 19.7302 10.5527H14.1052C13.5085 10.5527 12.9362 10.3157 12.5142 9.89372C12.0923 9.47177 11.8552 8.89947 11.8552 8.30273V2.67773C11.8552 2.26352 12.191 1.92773 12.6052 1.92773Z" fill="#1C4835"/>
<path fill-rule="evenodd" clip-rule="evenodd" d="M8.10522 13.5527C8.10522 13.1385 8.44101 12.8027 8.85522 12.8027H16.3552C16.7694 12.8027 17.1052 13.1385 17.1052 13.5527C17.1052 13.9669 16.7694 14.3027 16.3552 14.3027H8.85522C8.44101 14.3027 8.10522 13.9669 8.10522 13.5527Z" fill="#1C4835"/>
<path fill-rule="evenodd" clip-rule="evenodd" d="M8.10522 17.3027C8.10522 16.8885 8.44101 16.5527 8.85522 16.5527H16.3552C16.7694 16.5527 17.1052 16.8885 17.1052 17.3027C17.1052 17.7169 16.7694 18.0527 16.3552 18.0527H8.85522C8.44101 18.0527 8.10522 17.7169 8.10522 17.3027Z" fill="#1C4835"/>
</svg>
