<svg width="139" height="30" viewBox="0 0 139 30" fill="none" xmlns="http://www.w3.org/2000/svg">
<path d="M6.09748 1.58643C9.2998 1.58643 12.4115 2.54063 12.4115 6.38726C12.4115 8.59386 11.052 9.96552 9.08833 10.711C11.6864 11.0688 13.4387 12.7685 13.4387 15.5715C13.4387 19.4181 10.8405 21.416 6.06727 21.416H0.0251465V1.58643H6.09748ZM9.93487 6.62581C9.93487 3.97193 8.06181 3.46501 5.58454 3.46501H2.41242V9.96552H5.34286C8.6056 9.96552 9.93487 8.59386 9.93487 6.62581ZM10.8708 15.6317C10.8708 13.2164 9.14875 11.8149 6.18811 11.8149H2.41179V19.5082H6.06727C9.72275 19.5082 10.8708 17.8383 10.8708 15.6317Z" fill="#F5F2E1"/>
<path d="M16.9734 17.0326V0.691895H19.36V16.9134C19.36 19.2094 19.783 19.9847 21.2633 19.9847C21.9581 19.9847 22.6832 19.7461 23.2572 19.4778L23.801 21.1178C23.1666 21.5353 21.9581 21.8335 20.7195 21.8335C17.1849 21.8335 16.9734 19.5374 16.9734 17.0326Z" fill="#F5F2E1"/>
<path d="M24.9187 13.9018C24.9187 7.72929 28.6346 6.17871 31.6255 6.17871C33.71 6.17871 37.8186 6.83473 37.8186 13.5738C37.8186 19.3885 34.9184 21.8336 31.1119 21.8336C27.3053 21.8336 24.9187 19.2692 24.9187 13.9018ZM35.432 14.0813C35.432 10.5031 34.3746 8.02811 31.4442 8.02811C28.5138 8.02811 27.3053 10.3838 27.3053 13.6042C27.3053 16.5563 27.8793 20.0451 31.3233 20.0451C34.1631 20.0451 35.432 17.3316 35.432 14.0813Z" fill="#F5F2E1"/>
<path d="M40.7183 13.9018C40.7183 7.72929 44.4342 6.17871 47.425 6.17871C49.5095 6.17871 53.6182 6.83473 53.6182 13.5738C53.6182 19.3885 50.718 21.8336 46.9114 21.8336C43.1049 21.8336 40.7183 19.2692 40.7183 13.9018ZM51.2316 14.0813C51.2316 10.5031 50.1742 8.02811 47.2438 8.02811C44.3133 8.02811 43.1049 10.3838 43.1049 13.6042C43.1049 16.5563 43.6789 20.0451 47.1229 20.0451C49.9627 20.0451 51.2316 17.3316 51.2316 14.0813Z" fill="#F5F2E1"/>
<path d="M57.0923 6.59617H59.0862L59.3883 8.71331C60.4457 7.07328 62.1375 6.17871 63.9803 6.17871C66.0044 6.17871 67.4847 6.98382 68.3004 8.92205C69.2672 7.1031 71.0798 6.17871 72.9831 6.17871C76.0948 6.17871 77.8168 8.02748 77.8168 11.4268V21.4161H75.4603V12.053C75.4603 9.93589 75.0072 8.02748 72.3789 8.02748C70.2943 8.02748 68.7536 9.75697 68.7536 11.5759V21.4161H66.3972V12.0828C66.3972 10.1744 66.1253 8.02748 63.3157 8.02748C61.1707 8.02748 59.6904 9.84643 59.6904 11.725V21.4161H57.334V8.83259L57.0923 6.59617Z" fill="#F5F2E1"/>
<path d="M80.8682 20.4028L81.6839 18.7031C82.56 19.2697 84.1309 20.045 85.8831 20.045C87.4541 20.045 88.874 19.2399 88.874 17.5104C88.874 15.7809 87.4843 15.2441 85.7623 14.7968C83.5871 14.1707 81.2005 13.5146 81.2005 10.5626C81.2005 7.6105 83.6173 6.1792 86.2457 6.1792C88.3906 6.1792 90.2032 7.10358 91.2606 8.17706L89.9918 9.60837C88.9948 8.68398 87.6958 7.96833 86.1852 7.96833C84.856 7.96833 83.4361 8.59453 83.4361 10.3538C83.4361 11.9939 84.856 12.471 86.6082 13.0077C88.7833 13.6637 91.17 14.3197 91.17 17.3016C91.17 20.2835 88.9948 21.8341 85.9133 21.8341C83.4663 21.8341 81.5026 20.9395 80.8682 20.4028Z" fill="#F5F2E1"/>
<path d="M93.6775 14.4384C93.6775 9.42882 96.1548 6.17857 100.747 6.17857C101.955 6.17857 102.892 6.41712 103.858 6.7153V0.691895H106.185V18.7323L106.426 21.416H104.312L104.1 19.6269L104.01 19.5971C102.801 21.2371 101.14 21.8633 99.5686 21.8633C95.1578 21.8633 93.6775 18.4043 93.6775 14.4384ZM103.858 16.8544V8.68398C103.164 8.32616 102.046 7.96833 100.656 7.96833C97.3632 7.96833 96.0037 10.652 96.0037 14.1707C96.0037 17.242 96.8496 20.045 99.9311 20.045C102.378 20.045 103.858 18.3453 103.858 16.8544Z" fill="#F5F2E1"/>
<path d="M109.99 14.6473C109.99 9.36933 112.528 6.17871 117.543 6.17871C118.48 6.17871 120.594 6.41726 122.528 7.13291V18.8219L122.77 21.4161H120.655L120.443 19.6568L120.353 19.627C119.537 20.8198 118.147 21.8634 115.882 21.8634C111.41 21.8634 109.99 18.5834 109.99 14.6473ZM120.202 16.7048V8.5344C119.658 8.26603 118.449 7.99766 117.181 7.99766C113.555 7.99766 112.317 10.9199 112.317 14.7367C112.317 17.3011 113.102 20.0445 116.274 20.0445C118.842 20.0445 120.202 18.3746 120.202 16.7048Z" fill="#F5F2E1"/>
<path d="M127.815 25.5913C127.815 23.176 129.658 21.4465 131.138 20.4923C128.721 20.2239 126.908 19.061 126.908 15.602V6.59668H129.265V15.0951C129.265 17.2718 129.476 18.9715 132.679 18.9715C134.612 18.9715 136.334 17.5402 136.334 15.4827V6.59668H138.66V20.7905C138.66 22.1025 138.509 23.8618 138.177 24.9353C137.482 27.7084 135.579 29.3485 132.377 29.3485C129.174 29.3485 127.815 27.8873 127.815 25.5913ZM136.334 22.0727V19.3591C132.709 20.8203 129.99 22.4603 129.99 25.2633C129.99 26.784 130.957 27.5593 132.588 27.5593C135.337 27.5593 136.334 25.2931 136.334 22.0727Z" fill="#F5F2E1"/>
</svg>
