<svg width="51" height="52" viewBox="0 0 51 52" fill="none" xmlns="http://www.w3.org/2000/svg">
<g clip-path="url(#clip0_116_4661)">
<path d="M29.0903 23.3807C29.5899 23.6792 30.1382 23.9039 30.7195 24.0492C31.2939 24.1922 31.8911 24.2648 32.4962 24.2648C33.3283 24.2648 34.1162 24.1264 34.8394 23.8529C35.5716 23.5759 36.2153 23.1594 36.7534 22.6135C37.2893 22.0699 37.7162 21.3855 38.0227 20.5809C38.3258 19.7819 38.4802 18.849 38.4802 17.8071C38.4802 16.7653 38.3269 15.8324 38.0227 15.0334C37.7173 14.2321 37.3041 13.55 36.7943 13.0075C36.2789 12.4594 35.6693 12.0451 34.9813 11.775C34.3024 11.5083 33.5804 11.3733 32.8379 11.3733C31.7037 11.3733 30.724 11.6445 29.9259 12.1779C29.5785 12.4106 29.2743 12.6659 29.0165 12.9417L29.0347 8.27378C29.0347 7.73242 28.8497 7.29661 28.483 6.97543C28.1322 6.669 27.6951 6.51465 27.1842 6.51465H26.7869V20.5275L26.8073 20.5888C27.0196 21.2266 27.3329 21.785 27.7371 22.2458C28.1333 22.6986 28.5897 23.0811 29.0926 23.3807H29.0903ZM32.7334 12.6432C33.2193 12.6432 33.6678 12.7318 34.0685 12.9054C34.4557 13.0734 34.7985 13.3526 35.088 13.7339C35.3866 14.1288 35.6273 14.6634 35.8021 15.3216C35.9815 15.9969 36.0723 16.8334 36.0723 17.8071C36.0723 18.7809 35.9815 19.6366 35.8032 20.3028C35.6284 20.9531 35.3843 21.4877 35.0789 21.8906C34.7803 22.2833 34.4307 22.5568 34.0118 22.7281C33.5792 22.9041 33.0967 22.9937 32.5768 22.9937C32.0568 22.9937 31.5709 22.9075 31.1372 22.7372C30.7104 22.5704 30.3403 22.3241 30.0349 22.0041C29.7284 21.6829 29.4831 21.272 29.306 20.7818C29.1267 20.2835 29.0358 19.6866 29.0358 19.0101V16.5814C29.0358 16.0412 29.1267 15.5271 29.3049 15.0527C29.4831 14.5783 29.7363 14.1538 30.0565 13.7918C30.3721 13.4354 30.7615 13.1517 31.2122 12.9485C31.664 12.7454 32.1772 12.6432 32.7368 12.6432H32.7334Z" fill="#F5F2E1"/>
<path d="M30.6662 26.2545C30.0281 26.4667 29.4696 26.78 29.0087 27.184C28.5557 27.5801 28.1731 28.0363 27.8734 28.5391C27.5748 29.0385 27.35 29.5866 27.2047 30.1677C27.0617 30.742 26.989 31.3389 26.989 31.9439C26.989 32.7758 27.1275 33.5634 27.4011 34.2863C27.6781 35.0184 28.0948 35.6619 28.6408 36.1998C29.1846 36.7355 29.8692 37.1622 30.6741 37.4687C31.4734 37.7717 32.4066 37.926 33.4487 37.926C34.4909 37.926 35.4241 37.7728 36.2233 37.4687C37.0249 37.1634 37.7072 36.7502 38.2498 36.2407C38.7982 35.7254 39.2125 35.116 39.4827 34.4282C39.7495 33.7495 39.8846 33.0277 39.8846 32.2855C39.8846 31.1517 39.6133 30.1722 39.0797 29.3744C38.847 29.0271 38.5915 28.7229 38.3157 28.4653L42.9851 28.4835C43.5266 28.4835 43.9625 28.2985 44.2838 27.9319C44.5903 27.5812 44.7447 27.1443 44.7447 26.6336V26.2363H30.7275L30.6662 26.2568V26.2545ZM38.3509 33.5157C38.1817 33.9027 37.9036 34.2455 37.5221 34.5349C37.127 34.8334 36.5923 35.074 35.9339 35.2487C35.2584 35.4281 34.4217 35.5189 33.4476 35.5189C32.4735 35.5189 31.6175 35.4281 30.9511 35.2499C30.3006 35.0751 29.7659 34.8311 29.3629 34.5258C28.9701 34.2273 28.6965 33.8778 28.525 33.459C28.3491 33.0266 28.2594 32.5442 28.2594 32.0244C28.2594 31.5046 28.3457 31.0189 28.516 30.5854C28.6828 30.1586 28.9292 29.7886 29.2493 29.4833C29.5706 29.1758 29.9816 28.9318 30.472 28.7547C30.9704 28.5754 31.5676 28.4846 32.2442 28.4846H34.6737C35.2141 28.4846 35.7284 28.5754 36.2029 28.7536C36.6775 28.9318 37.1021 29.1849 37.4642 29.5049C37.8207 29.8204 38.1045 30.2097 38.3077 30.6603C38.5109 31.112 38.6131 31.6249 38.6131 32.1845C38.6131 32.6702 38.5246 33.1185 38.3509 33.5191V33.5157Z" fill="#F5F2E1"/>
<path d="M23.4231 28.3789C23.0269 27.9261 22.5705 27.5436 22.0676 27.244C21.5681 26.9455 21.0197 26.7208 20.4385 26.5755C19.864 26.4325 19.2669 26.3599 18.6618 26.3599C17.8296 26.3599 17.0417 26.4983 16.3186 26.7718C15.5863 27.0488 14.9426 27.4653 14.4045 28.0112C13.8686 28.5548 13.4418 29.2392 13.1353 30.0438C12.8321 30.8428 12.6777 31.7757 12.6777 32.8176C12.6777 33.8594 12.831 34.7923 13.1353 35.5913C13.4406 36.3926 13.8539 37.0747 14.3636 37.6172C14.879 38.1653 15.4887 38.5796 16.1767 38.8497C16.8556 39.1164 17.5776 39.2514 18.3201 39.2514C19.4542 39.2514 20.4339 38.9802 21.232 38.4468C21.5794 38.2141 21.8837 37.9588 22.1414 37.683L22.1232 42.3509C22.1232 42.8923 22.3083 43.3281 22.675 43.6493C23.0258 43.9557 23.4629 44.11 23.9737 44.11H24.3711V30.0972L24.3506 30.0359C24.1383 29.398 23.825 28.8397 23.4209 28.3789H23.4231ZM18.4245 37.9803C17.9386 37.9803 17.4902 37.8918 17.0894 37.7182C16.7023 37.5502 16.3594 37.271 16.0699 36.8897C15.7714 36.4947 15.5307 35.9602 15.3558 35.3019C15.1765 34.6266 15.0857 33.7902 15.0857 32.8164C15.0857 31.8427 15.1765 30.9869 15.3547 30.3207C15.5295 29.6704 15.7736 29.1359 16.079 28.733C16.3776 28.3403 16.7273 28.0668 17.1462 27.8954C17.5787 27.7195 18.0612 27.6298 18.5812 27.6298C19.1011 27.6298 19.587 27.7161 20.0207 27.8863C20.4476 28.0532 20.8177 28.2994 21.1231 28.6195C21.4296 28.9407 21.6748 29.3515 21.8519 29.8418C22.0313 30.34 22.1221 30.937 22.1221 31.6134V34.0422C22.1221 34.5824 22.0313 35.0965 21.853 35.5709C21.6748 36.0453 21.4216 36.4698 21.1015 36.8318C20.7859 37.1882 20.3965 37.4719 19.9458 37.675C19.4939 37.8782 18.9808 37.9803 18.4211 37.9803H18.4245Z" fill="#F5F2E1"/>
<path d="M20.6279 23.8415C21.2659 23.6292 21.8245 23.316 22.2854 22.912C22.7384 22.5159 23.1209 22.0596 23.4207 21.5569C23.7192 21.0575 23.944 20.5093 24.0893 19.9283C24.2324 19.354 24.305 18.757 24.305 18.1521C24.305 17.3202 24.1665 16.5326 23.8929 15.8096C23.6159 15.0776 23.1993 14.4341 22.6532 13.8961C22.1094 13.3605 21.4248 12.9337 20.6199 12.6273C19.8207 12.3243 18.8875 12.1699 17.8453 12.1699C16.8031 12.1699 15.8699 12.3231 15.0707 12.6273C14.2692 12.9326 13.5869 13.3457 13.0442 13.8553C12.4959 14.3705 12.0815 14.98 11.8113 15.6678C11.5445 16.3464 11.4094 17.0682 11.4094 17.8105C11.4094 18.9443 11.6808 19.9237 12.2143 20.7216C12.4471 21.0688 12.7025 21.373 12.9784 21.6306L8.30899 21.6125C7.76747 21.6125 7.33152 21.7975 7.01024 22.164C6.70371 22.5147 6.54932 22.9517 6.54932 23.4624V23.8596H20.5666L20.6279 23.8392V23.8415ZM12.9421 16.5802C13.1112 16.1932 13.3894 15.8505 13.7708 15.5611C14.1659 15.2626 14.7006 15.022 15.3591 14.8472C16.0345 14.6679 16.8712 14.5771 17.8453 14.5771C18.8194 14.5771 19.6754 14.6679 20.3418 14.8461C20.9923 15.0208 21.527 15.2649 21.93 15.5701C22.3228 15.8686 22.5964 16.2182 22.7679 16.637C22.9438 17.0694 23.0335 17.5517 23.0335 18.0715C23.0335 18.5913 22.9472 19.0771 22.777 19.5106C22.6101 19.9373 22.3637 20.3073 22.0436 20.6126C21.7223 20.9202 21.3113 21.1642 20.8209 21.3412C20.3225 21.5205 19.7253 21.6113 19.0487 21.6113H16.6192C16.0788 21.6113 15.5645 21.5205 15.09 21.3424C14.6155 21.1642 14.1909 20.9111 13.8287 20.591C13.4722 20.2755 13.1884 19.8863 12.9852 19.4357C12.782 18.984 12.6798 18.471 12.6798 17.9115C12.6798 17.4257 12.7684 16.9775 12.9421 16.5768V16.5802Z" fill="#F5F2E1"/>
<path d="M17.7727 2.50729C17.8215 4.84182 17.8783 7.48846 19.8264 9.35541C20.5405 10.0398 21.4158 10.6662 22.5817 11.3268C22.7463 11.421 22.9291 11.4675 23.1119 11.4675C23.2822 11.4675 23.4536 11.4266 23.6103 11.3449C23.935 11.1747 24.1495 10.8558 24.1825 10.4903C24.2858 9.34746 24.4334 6.48405 23.5694 4.5615C22.7463 2.73087 20.62 1.07615 19.4257 0.25333C19.0908 0.0229409 18.6616 0.000242483 18.304 0.193179C17.9464 0.386116 17.7307 0.759505 17.7398 1.16581L17.7613 2.0658C17.7648 2.21221 17.7682 2.35975 17.7716 2.50956L17.7727 2.50729ZM22.1197 5.21181C22.6805 6.45908 22.7055 8.35214 22.6544 9.52224C21.9528 9.08303 21.3942 8.65629 20.9265 8.20914C19.4529 6.79729 19.4075 4.60008 19.3621 2.47437C19.3598 2.37336 19.3575 2.27236 19.3553 2.17135C20.2907 2.89997 21.6043 4.06667 22.1197 5.21181Z" fill="#F5F2E1"/>
<path d="M50.8752 17.9674C50.6856 17.6076 50.3143 17.3897 49.9079 17.3931L49.0076 17.4056C48.8612 17.4079 48.7125 17.409 48.5638 17.4113C46.2285 17.4362 43.581 17.4646 41.6931 19.3917C41.0017 20.0976 40.3659 20.967 39.6916 22.1257C39.5077 22.4435 39.4963 22.8271 39.6632 23.154C39.8301 23.4808 40.1468 23.6976 40.5124 23.7351C40.9563 23.7804 41.6601 23.8338 42.4685 23.8338C43.7388 23.8338 45.2681 23.6999 46.4487 23.1835C48.289 22.38 49.9658 20.2713 50.8014 19.0864C51.0353 18.755 51.0636 18.3249 50.874 17.9662L50.8752 17.9674ZM45.813 21.7285C44.5596 22.2767 42.666 22.2812 41.4967 22.2177C41.944 21.5208 42.3754 20.967 42.8283 20.5039C44.2554 19.0467 46.4544 19.0229 48.5808 19.0002C48.6841 19.0002 48.7863 18.9979 48.8839 18.9967C48.146 19.924 46.9642 21.2257 45.813 21.7285Z" fill="#F5F2E1"/>
<path d="M33.8982 48.6146C33.8494 46.2801 33.7927 43.6334 31.8445 41.7665C31.1304 41.0821 30.2551 40.4556 29.0892 39.794C28.7702 39.6135 28.3853 39.6067 28.0606 39.777C27.736 39.9472 27.5214 40.2661 27.4885 40.6316C27.3852 41.7744 27.2376 44.639 28.1015 46.5604C28.9246 48.391 31.051 50.0457 32.2453 50.8686C32.4292 50.9957 32.6415 51.0592 32.8549 51.0592C33.0298 51.0592 33.2057 51.0161 33.3669 50.9287C33.7245 50.7358 33.9402 50.3624 33.9312 49.9561L33.9096 49.0561C33.9062 48.9097 33.9028 48.7621 33.8994 48.6123L33.8982 48.6146ZM29.5513 45.9101C28.9904 44.6628 28.9655 42.7697 29.0166 41.5996C29.7182 42.0389 30.2767 42.4656 30.7444 42.9139C32.218 44.3257 32.2634 46.5229 32.3089 48.6486C32.3111 48.7497 32.3134 48.8507 32.3157 48.9517C31.3802 48.223 30.0667 47.0563 29.5513 45.9112V45.9101Z" fill="#F5F2E1"/>
<path d="M10.4878 26.4293C9.34568 26.3136 6.48251 26.1365 4.55028 26.9798C2.70999 27.7833 1.03319 29.892 0.197627 31.0768C-0.0362396 31.4082 -0.0646215 31.8384 0.12497 32.197C0.31229 32.5522 0.675578 32.7713 1.07633 32.7713C1.08087 32.7713 1.08655 32.7713 1.09222 32.7713L1.9925 32.7588C2.13895 32.7565 2.28654 32.7554 2.43526 32.7531C4.77052 32.7281 7.41912 32.6998 9.30708 30.7727C9.99846 30.0668 10.6342 29.1974 11.3086 28.0386C11.4925 27.7209 11.5038 27.3373 11.337 27.0104C11.1701 26.6836 10.8533 26.4668 10.4878 26.4293ZM8.17181 29.6605C6.74476 31.1177 4.54573 31.1415 2.41936 31.1642C2.31719 31.1642 2.21501 31.1665 2.11624 31.1676C2.85417 30.2404 4.03599 28.9386 5.18716 28.4359C6.12831 28.0239 7.43047 27.9195 8.51693 27.9195C8.87681 27.9195 9.21285 27.9308 9.50462 27.9467C9.05732 28.6436 8.62592 29.1974 8.17294 29.6605H8.17181Z" fill="#F5F2E1"/>
</g>
<defs>
<clipPath id="clip0_116_4661">
<rect width="51" height="51" fill="white" transform="translate(0 0.0615234)"/>
</clipPath>
</defs>
</svg>
