<svg width="25" height="25" viewBox="0 0 25 25" fill="none" xmlns="http://www.w3.org/2000/svg">
<path d="M20.7937 20.9648V18.9648H4.7937V20.9648H20.7937ZM9.7937 16.9648V11.9648C8.95417 11.3352 8.33403 10.4574 8.02113 9.45568C7.70823 8.454 7.71843 7.37926 8.05028 6.3837C8.38214 5.38814 9.01882 4.52224 9.87015 3.90863C10.7215 3.29503 11.7443 2.96484 12.7937 2.96484C13.8431 2.96484 14.8659 3.29503 15.7173 3.90863C16.5686 4.52224 17.2053 5.38814 17.5371 6.3837C17.869 7.37926 17.8792 8.454 17.5663 9.45568C17.2534 10.4574 16.6332 11.3352 15.7937 11.9648V16.9648H20.7937C21.3241 16.9648 21.8328 17.1756 22.2079 17.5506C22.583 17.9257 22.7937 18.4344 22.7937 18.9648V22.9648H2.7937V18.9648C2.7937 18.4344 3.00441 17.9257 3.37949 17.5506C3.75456 17.1756 4.26327 16.9648 4.7937 16.9648H9.7937ZM13.7937 16.9648V10.9658L14.5927 10.3658C15.0967 9.9882 15.469 9.46154 15.657 8.86049C15.8449 8.25944 15.839 7.61448 15.6399 7.017C15.4409 6.41952 15.0589 5.89983 14.5481 5.53155C14.0372 5.16327 13.4235 4.96509 12.7937 4.96509C12.1639 4.96509 11.5502 5.16327 11.0393 5.53155C10.5285 5.89983 10.1465 6.41952 9.94745 7.017C9.74843 7.61448 9.74248 8.25944 9.93044 8.86049C10.1184 9.46154 10.4907 9.9882 10.9947 10.3658L11.7937 10.9658V16.9648H13.7937Z" fill="#1C4835"/>
</svg>
