<svg width="25" height="25" viewBox="0 0 25 25" fill="none" xmlns="http://www.w3.org/2000/svg">
<path d="M14.5181 9.06934C13.7374 8.86695 12.6525 8.56934 11.7828 8.56934C7.49443 8.56934 4.01807 11.2369 4.01807 14.5276C4.01807 16.4186 5.16601 18.1038 6.95631 19.1954L6.47125 20.7952C6.35442 21.1805 6.64278 21.5693 7.04543 21.5693H8.80954C8.93942 21.5693 9.0658 21.5272 9.16968 21.4492L10.5643 20.4026H13.0012L14.3958 21.4492C14.4997 21.5272 14.6261 21.5693 14.756 21.5693H16.5201C16.9227 21.5693 17.2111 21.1805 17.0942 20.7952L16.6092 19.1954C17.6758 18.5451 18.5144 17.684 19.0181 16.6943" stroke="#1C4835" stroke-width="1.5" stroke-linecap="round" stroke-linejoin="round"/>
<path d="M14.5181 9.06934L19.0181 7.56934L18.9341 11.1976L21.0181 12.0693V15.5693L19.0922 16.5693" stroke="#1C4835" stroke-width="1.5" stroke-linecap="round" stroke-linejoin="round"/>
<path d="M15.5181 13.5693C15.242 13.5693 15.0181 13.3454 15.0181 13.0693C15.0181 12.7932 15.242 12.5693 15.5181 12.5693C15.7942 12.5693 16.0181 12.7932 16.0181 13.0693C16.0181 13.3454 15.7942 13.5693 15.5181 13.5693Z" fill="#1C4835" stroke="#1C4835" stroke-width="1.5" stroke-linecap="round" stroke-linejoin="round"/>
<path d="M2.01807 10.5693C2.01807 10.5693 2.01807 12.9693 4.01807 13.5693" stroke="#1C4835" stroke-width="1.5" stroke-linecap="round" stroke-linejoin="round"/>
<path d="M12.8189 8.3223C12.9479 7.95065 13.0181 7.5507 13.0181 7.13406C13.0181 5.16532 11.4511 3.56934 9.51807 3.56934C7.58507 3.56934 6.01807 5.16532 6.01807 7.13406C6.01807 8.07572 6.37656 8.93209 6.96211 9.56934" stroke="#1C4835" stroke-width="1.5" stroke-linejoin="round"/>
</svg>
