<svg width="22" height="23" viewBox="0 0 22 23" fill="none" xmlns="http://www.w3.org/2000/svg">
<path d="M11.0635 2.41214C6.07349 2.41214 2.02832 6.4573 2.02832 11.4473C2.02832 16.4372 6.07349 20.4824 11.0635 20.4824C16.0534 20.4824 20.0986 16.4372 20.0986 11.4473C20.0986 6.4573 16.0534 2.41214 11.0635 2.41214Z" fill="#FAF9F4" stroke="#1C4835" stroke-width="1.35527" stroke-linecap="round" stroke-linejoin="round"/>
<path d="M7.44946 19.7306V13.2543L11.0635 6.9297L14.6776 13.2543V19.7306" stroke="#1C4835" stroke-width="1.35527" stroke-linecap="round" stroke-linejoin="round"/>
<path d="M7.44946 13.2543C7.44946 13.2543 8.46751 14.1578 9.25649 14.1578C10.0454 14.1578 11.0635 13.2543 11.0635 13.2543C11.0635 13.2543 12.0816 14.1578 12.8705 14.1578C13.6595 14.1578 14.6776 13.2543 14.6776 13.2543" stroke="#1C4835" stroke-width="1.35527" stroke-linecap="round" stroke-linejoin="round"/>
</svg>
