<svg width="23" height="23" viewBox="0 0 23 23" fill="none" xmlns="http://www.w3.org/2000/svg">
<path d="M4.21279 9.64025V18.6754H15.055V9.64025H4.21279ZM6.01982 7.83322V4.21916C6.01982 3.73991 6.2102 3.28029 6.54908 2.9414C6.88797 2.60252 7.34759 2.41214 7.82684 2.41214H18.669C19.1483 2.41214 19.6079 2.60252 19.9468 2.9414C20.2857 3.28029 20.476 3.73991 20.476 4.21916V13.2543C20.476 13.7336 20.2857 14.1932 19.9468 14.5321C19.6079 14.8709 19.1483 15.0613 18.669 15.0613H16.862V18.6754C16.862 19.1546 16.6716 19.6143 16.3327 19.9531C15.9938 20.292 15.5342 20.4824 15.055 20.4824H4.21279C3.73354 20.4824 3.27391 20.292 2.93503 19.9531C2.59614 19.6143 2.40576 19.1546 2.40576 18.6754V9.64025C2.40576 9.16099 2.59614 8.70137 2.93503 8.36248C3.27391 8.0236 3.73354 7.83322 4.21279 7.83322H6.01982ZM7.82684 7.83322H15.055C15.5342 7.83322 15.9938 8.0236 16.3327 8.36248C16.6716 8.70137 16.862 9.16099 16.862 9.64025V13.2543H18.669V4.21916H7.82684V7.83322ZM7.82684 15.9648C7.10796 15.9648 6.41853 15.6793 5.9102 15.1709C5.40188 14.6626 5.1163 13.9732 5.1163 13.2543C5.1163 12.5354 5.40188 11.846 5.9102 11.3377C6.41853 10.8293 7.10796 10.5438 7.82684 10.5438C8.54572 10.5438 9.23516 10.8293 9.74349 11.3377C10.2518 11.846 10.5374 12.5354 10.5374 13.2543C10.5374 13.9732 10.2518 14.6626 9.74349 15.1709C9.23516 15.6793 8.54572 15.9648 7.82684 15.9648ZM7.82684 14.1578C8.06647 14.1578 8.29628 14.0626 8.46572 13.8932C8.63517 13.7237 8.73036 13.4939 8.73036 13.2543C8.73036 13.0147 8.63517 12.7849 8.46572 12.6154C8.29628 12.446 8.06647 12.3508 7.82684 12.3508C7.58722 12.3508 7.35741 12.446 7.18796 12.6154C7.01852 12.7849 6.92333 13.0147 6.92333 13.2543C6.92333 13.4939 7.01852 13.7237 7.18796 13.8932C7.35741 14.0626 7.58722 14.1578 7.82684 14.1578ZM8.73036 7.83322C8.73036 7.11434 9.01593 6.4249 9.52426 5.91658C10.0326 5.40825 10.722 5.12268 11.4409 5.12268C12.1598 5.12268 12.8492 5.40825 13.3575 5.91658C13.8659 6.4249 14.1514 7.11434 14.1514 7.83322H12.3444C12.3444 7.59359 12.2492 7.36378 12.0798 7.19434C11.9103 7.0249 11.6805 6.9297 11.4409 6.9297C11.2013 6.9297 10.9715 7.0249 10.802 7.19434C10.6326 7.36378 10.5374 7.59359 10.5374 7.83322H8.73036ZM10.4145 20.0469L8.85324 19.1371L11.3153 14.915C11.529 14.5483 11.8259 14.237 12.1819 14.006C12.5379 13.775 12.9432 13.6309 13.3651 13.5852C13.7871 13.5395 14.2138 13.5935 14.611 13.7428C15.0083 13.8922 15.3649 14.1328 15.6522 14.4451L16.6352 15.5149L15.3043 16.7382L14.3222 15.6685C14.2264 15.5644 14.1075 15.4842 13.9751 15.4345C13.8426 15.3848 13.7003 15.3668 13.5597 15.3821C13.4191 15.3974 13.284 15.4455 13.1653 15.5226C13.0467 15.5996 12.9478 15.7034 12.8766 15.8257L10.4145 20.0469V20.0469ZM16.2982 8.32834C16.8055 8.13254 17.3601 8.09419 17.8895 8.21829C18.419 8.3424 18.8988 8.62319 19.2662 9.02405L20.2493 10.0938L18.9184 11.3172L17.9363 10.2474C17.8029 10.1023 17.6257 10.0048 17.4318 9.96968C17.2378 9.93461 17.0377 9.96392 16.862 10.0532V9.64025C16.862 9.12434 16.6451 8.65813 16.2982 8.32925V8.32834Z" fill="#1C4835"/>
</svg>
