<svg width="19" height="19" viewBox="0 0 19 19" fill="none" xmlns="http://www.w3.org/2000/svg">
<path d="M8.1376 12.8437C8.0378 12.8439 7.93893 12.8244 7.84669 12.7863C7.75444 12.7482 7.67063 12.6923 7.60006 12.6217L4.37483 9.39569C4.30216 9.32561 4.24418 9.24175 4.20427 9.14902C4.16436 9.05629 4.14332 8.95654 4.14237 8.85559C4.14142 8.75463 4.16059 8.6545 4.19875 8.56104C4.23691 8.46757 4.29331 8.38265 4.36464 8.31121C4.43598 8.23977 4.52083 8.18326 4.61424 8.14496C4.70765 8.10667 4.80775 8.08736 4.90871 8.08816C5.00966 8.08897 5.10944 8.10987 5.20223 8.14965C5.29502 8.18943 5.37896 8.24729 5.44914 8.31986L8.13684 11.0076L12.9762 6.1697C13.1188 6.02704 13.3122 5.94685 13.5139 5.94678C13.7155 5.94671 13.909 6.02676 14.0517 6.16932C14.1943 6.31189 14.2745 6.50528 14.2746 6.70697C14.2747 6.90866 14.1946 7.10211 14.052 7.24478L8.67514 12.6217C8.60456 12.6923 8.52075 12.7482 8.42851 12.7863C8.33626 12.8244 8.2374 12.8439 8.1376 12.8437Z" fill="#208459"/>
</svg>
