<svg width="25" height="25" viewBox="0 0 25 25" fill="none" xmlns="http://www.w3.org/2000/svg">
<g clip-path="url(#clip0_144_6769)">
<path d="M8.0437 13.9653V5.46533C8.0437 5.06751 8.20174 4.68598 8.48304 4.40467C8.76435 4.12337 9.14588 3.96533 9.5437 3.96533C9.94153 3.96533 10.3231 4.12337 10.6044 4.40467C10.8857 4.68598 11.0437 5.06751 11.0437 5.46533V12.9653" stroke="#1C4835" stroke-width="2" stroke-linecap="round" stroke-linejoin="round"/>
<path d="M11.0437 12.4653V10.4653C11.0437 10.0675 11.2017 9.68598 11.483 9.40467C11.7643 9.12337 12.1459 8.96533 12.5437 8.96533C12.9415 8.96533 13.3231 9.12337 13.6044 9.40467C13.8857 9.68598 14.0437 10.0675 14.0437 10.4653V12.9653" stroke="#1C4835" stroke-width="2" stroke-linecap="round" stroke-linejoin="round"/>
<path d="M14.0437 11.4653C14.0437 11.0675 14.2017 10.686 14.483 10.4047C14.7643 10.1234 15.1459 9.96533 15.5437 9.96533C15.9415 9.96533 16.3231 10.1234 16.6044 10.4047C16.8857 10.686 17.0437 11.0675 17.0437 11.4653V12.9653" stroke="#1C4835" stroke-width="2" stroke-linecap="round" stroke-linejoin="round"/>
<path d="M17.0436 12.4653C17.0436 12.0675 17.2017 11.686 17.483 11.4047C17.7643 11.1234 18.1458 10.9653 18.5436 10.9653C18.9415 10.9653 19.323 11.1234 19.6043 11.4047C19.8856 11.686 20.0436 12.0675 20.0436 12.4653V16.9653C20.0436 18.5566 19.4115 20.0828 18.2863 21.208C17.1611 22.3332 15.6349 22.9653 14.0436 22.9653H12.0436H12.2516C11.258 22.9655 10.2798 22.7189 9.40502 22.2476C8.53022 21.7764 7.78616 21.0952 7.23964 20.2653L7.04364 19.9653C6.73164 19.4863 5.63664 17.5773 3.75764 14.2373C3.56609 13.8969 3.51492 13.4951 3.61502 13.1175C3.71512 12.7399 3.95859 12.4162 4.29364 12.2153C4.65052 12.0012 5.06871 11.9124 5.4818 11.9632C5.89489 12.0139 6.27918 12.2012 6.57364 12.4953L8.04364 13.9653" stroke="#1C4835" stroke-width="2" stroke-linecap="round" stroke-linejoin="round"/>
<path d="M5.0437 3.96533L4.0437 2.96533" stroke="#1C4835" stroke-width="2" stroke-linecap="round" stroke-linejoin="round"/>
<path d="M4.0437 7.96533H3.0437" stroke="#1C4835" stroke-width="2" stroke-linecap="round" stroke-linejoin="round"/>
<path d="M14.0437 3.96533L15.0437 2.96533" stroke="#1C4835" stroke-width="2" stroke-linecap="round" stroke-linejoin="round"/>
<path d="M15.0437 6.96533H16.0437" stroke="#1C4835" stroke-width="2" stroke-linecap="round" stroke-linejoin="round"/>
</g>
<defs>
<clipPath id="clip0_144_6769">
<rect width="24" height="24" fill="white" transform="translate(0.0437012 0.965332)"/>
</clipPath>
</defs>
</svg>
