<svg width="20" height="19" viewBox="0 0 20 19" fill="none" xmlns="http://www.w3.org/2000/svg">
<path d="M5.51042 11.9149C6.77014 11.9149 7.79135 10.8937 7.79135 9.63399C7.79135 8.37427 6.77014 7.35307 5.51042 7.35307C4.2507 7.35307 3.22949 8.37427 3.22949 9.63399C3.22949 10.8937 4.2507 11.9149 5.51042 11.9149Z" stroke="#1C4835" stroke-width="1.52062" stroke-linecap="round" stroke-linejoin="round"/>
<path d="M14.634 7.35307C15.8937 7.35307 16.9149 6.33186 16.9149 5.07214C16.9149 3.81242 15.8937 2.79121 14.634 2.79121C13.3742 2.79121 12.353 3.81242 12.353 5.07214C12.353 6.33186 13.3742 7.35307 14.634 7.35307Z" stroke="#1C4835" stroke-width="1.52062" stroke-linecap="round" stroke-linejoin="round"/>
<path d="M14.634 16.4768C15.8937 16.4768 16.9149 15.4556 16.9149 14.1959C16.9149 12.9361 15.8937 11.9149 14.634 11.9149C13.3742 11.9149 12.353 12.9361 12.353 14.1959C12.353 15.4556 13.3742 16.4768 14.634 16.4768Z" stroke="#1C4835" stroke-width="1.52062" stroke-linecap="round" stroke-linejoin="round"/>
<path d="M7.56323 8.6456L12.5813 6.06055" stroke="#1C4835" stroke-width="1.52062" stroke-linecap="round" stroke-linejoin="round"/>
<path d="M7.56323 10.6224L12.5813 13.2075" stroke="#1C4835" stroke-width="1.52062" stroke-linecap="round" stroke-linejoin="round"/>
</svg>
