<svg width="19" height="19" viewBox="0 0 19 19" fill="none" xmlns="http://www.w3.org/2000/svg">
<g clip-path="url(#clip0_44_11521)">
<path d="M6.24759 3.55152H4.72697L2.44604 11.1546V13.0554" stroke="#1C4835" stroke-width="1.52062" stroke-linecap="round" stroke-linejoin="round"/>
<path d="M12.3301 3.55152H13.8507L16.1316 11.1546V13.0554" stroke="#1C4835" stroke-width="1.52062" stroke-linecap="round" stroke-linejoin="round"/>
<path d="M7.76807 12.6752H10.8093" stroke="#1C4835" stroke-width="1.52062" stroke-linecap="round" stroke-linejoin="round"/>
<path d="M13.4704 15.7165C14.9401 15.7165 16.1315 14.5251 16.1315 13.0554C16.1315 11.5857 14.9401 10.3943 13.4704 10.3943C12.0007 10.3943 10.8093 11.5857 10.8093 13.0554C10.8093 14.5251 12.0007 15.7165 13.4704 15.7165Z" stroke="#1C4835" stroke-width="1.52062" stroke-linecap="round" stroke-linejoin="round"/>
<path d="M5.10713 15.7165C6.5768 15.7165 7.76821 14.5251 7.76821 13.0554C7.76821 11.5857 6.5768 10.3943 5.10713 10.3943C3.63745 10.3943 2.44604 11.5857 2.44604 13.0554C2.44604 14.5251 3.63745 15.7165 5.10713 15.7165Z" stroke="#1C4835" stroke-width="1.52062" stroke-linecap="round" stroke-linejoin="round"/>
</g>
<defs>
<clipPath id="clip0_44_11521">
<rect width="18.2474" height="18.2474" fill="white" transform="translate(0.165039 0.510284)"/>
</clipPath>
</defs>
</svg>
