<svg width="23" height="23" viewBox="0 0 23 23" fill="none" xmlns="http://www.w3.org/2000/svg">
<g clip-path="url(#clip0_2016_329)">
<path d="M0.344238 0.605106H22.0286V22.2894H0.344238V0.605106Z" fill="#FAF9F4"/>
<path d="M8.47573 4.21916H11.1863L12.9933 6.02619H17.5109C17.9901 6.02619 18.4497 6.21657 18.7886 6.55546C19.1275 6.89434 19.3179 7.35396 19.3179 7.83322V14.1578C19.3179 14.6371 19.1275 15.0967 18.7886 15.4356C18.4497 15.7745 17.9901 15.9648 17.5109 15.9648H8.47573C7.99648 15.9648 7.53685 15.7745 7.19797 15.4356C6.85908 15.0967 6.6687 14.6371 6.6687 14.1578V6.02619C6.6687 5.54694 6.85908 5.08731 7.19797 4.74843C7.53685 4.40954 7.99648 4.21916 8.47573 4.21916Z" stroke="#1C4835" stroke-width="1.80703" stroke-linecap="round" stroke-linejoin="round"/>
<path d="M15.7039 15.9648V17.7719C15.7039 18.2511 15.5135 18.7107 15.1746 19.0496C14.8357 19.3885 14.3761 19.5789 13.8969 19.5789H4.86171C4.38246 19.5789 3.92284 19.3885 3.58395 19.0496C3.24507 18.7107 3.05469 18.2511 3.05469 17.7719V9.64025C3.05469 9.16099 3.24507 8.70137 3.58395 8.36248C3.92284 8.0236 4.38246 7.83322 4.86171 7.83322H6.66874" stroke="#1C4835" stroke-width="1.80703" stroke-linecap="round" stroke-linejoin="round"/>
</g>
<defs>
<clipPath id="clip0_2016_329">
<rect width="21.6843" height="21.6843" fill="white" transform="translate(0.344238 0.605106)"/>
</clipPath>
</defs>
</svg>
