<svg width="19" height="19" viewBox="0 0 19 19" fill="none" xmlns="http://www.w3.org/2000/svg">
<path d="M9.28996 17.4226C5.09018 17.4226 1.68579 14.0182 1.68579 9.81847C1.68579 5.61869 5.09018 2.2143 9.28996 2.2143C13.4897 2.2143 16.8941 5.61869 16.8941 9.81847C16.8941 14.0182 13.4897 17.4226 9.28996 17.4226ZM9.28996 15.9018C10.9034 15.9018 12.4507 15.2609 13.5915 14.12C14.7324 12.9792 15.3733 11.4319 15.3733 9.81847C15.3733 8.20507 14.7324 6.65775 13.5915 5.5169C12.4507 4.37606 10.9034 3.73514 9.28996 3.73514C7.67656 3.73514 6.12924 4.37606 4.98839 5.5169C3.84755 6.65775 3.20662 8.20507 3.20662 9.81847C3.20662 11.4319 3.84755 12.9792 4.98839 14.12C6.12924 15.2609 7.67656 15.9018 9.28996 15.9018ZM9.28996 6.01639C9.49163 6.01639 9.68505 6.0965 9.82765 6.23911C9.97026 6.38171 10.0504 6.57513 10.0504 6.7768V10.5789C10.0504 10.7806 9.97026 10.974 9.82765 11.1166C9.68505 11.2592 9.49163 11.3393 9.28996 11.3393C9.08828 11.3393 8.89487 11.2592 8.75226 11.1166C8.60966 10.974 8.52954 10.7806 8.52954 10.5789V6.7768C8.52954 6.57513 8.60966 6.38171 8.75226 6.23911C8.89487 6.0965 9.08828 6.01639 9.28996 6.01639ZM9.28996 13.6206C9.08828 13.6206 8.89487 13.5404 8.75226 13.3978C8.60966 13.2552 8.52954 13.0618 8.52954 12.8601C8.52954 12.6585 8.60966 12.465 8.75226 12.3224C8.89487 12.1798 9.08828 12.0997 9.28996 12.0997C9.49163 12.0997 9.68505 12.1798 9.82765 12.3224C9.97026 12.465 10.0504 12.6585 10.0504 12.8601C10.0504 13.0618 9.97026 13.2552 9.82765 13.3978C9.68505 13.5404 9.49163 13.6206 9.28996 13.6206Z" fill="#ED9D00" fill-opacity="0.99"/>
</svg>
