<svg width="20" height="19" viewBox="0 0 20 19" fill="none" xmlns="http://www.w3.org/2000/svg">
<path fill-rule="evenodd" clip-rule="evenodd" d="M6.04973 2.40464C5.74726 2.40464 5.45718 2.5248 5.2433 2.73867C5.02942 2.95255 4.90926 3.24263 4.90926 3.5451V14.9497C4.90926 15.2522 5.02942 15.5423 5.2433 15.7562C5.45718 15.9701 5.74726 16.0902 6.04973 16.0902H14.033C14.3354 16.0902 14.6255 15.9701 14.8394 15.7562C15.0533 15.5423 15.1734 15.2522 15.1734 14.9497V8.00904C15.1734 8.00901 15.1734 8.00898 15.1734 8.00895C15.1734 7.85782 15.1134 7.71289 15.0065 7.606C15.0065 7.60599 15.0065 7.60597 15.0065 7.60596L9.97212 2.57161C9.86523 2.46474 9.72028 2.40469 9.56913 2.40464C9.5691 2.40464 9.56907 2.40464 9.56904 2.40464H6.04973ZM4.43687 1.93224C4.86462 1.50449 5.44479 1.26418 6.04973 1.26418H9.56921C10.0228 1.26424 10.4577 1.44442 10.7785 1.76509L10.7785 1.76513L15.813 6.79962C16.1337 7.12036 16.3138 7.55532 16.3139 8.00887V14.9497C16.3139 15.5547 16.0736 16.1348 15.6458 16.5626C15.2181 16.9904 14.6379 17.2307 14.033 17.2307H6.04973C5.44479 17.2307 4.86462 16.9904 4.43687 16.5626C4.00911 16.1348 3.7688 15.5547 3.7688 14.9497V3.5451C3.7688 2.94016 4.00911 2.36 4.43687 1.93224Z" fill="#1C4835"/>
<path fill-rule="evenodd" clip-rule="evenodd" d="M10.0414 1.5493C10.3564 1.5493 10.6117 1.8046 10.6117 2.11953V6.39627C10.6117 6.54751 10.6717 6.69255 10.7787 6.79949C10.8856 6.90643 11.0307 6.96651 11.1819 6.96651H15.4586C15.7736 6.96651 16.0289 7.22181 16.0289 7.53674C16.0289 7.85167 15.7736 8.10697 15.4586 8.10697H11.1819C10.7282 8.10697 10.2931 7.92674 9.97224 7.60592C9.65143 7.2851 9.47119 6.84998 9.47119 6.39627V2.11953C9.47119 1.8046 9.72649 1.5493 10.0414 1.5493Z" fill="#1C4835"/>
</svg>
