<svg width="512" height="512" viewBox="0 0 512 512" fill="none" xmlns="http://www.w3.org/2000/svg">
<g clip-path="url(#clip0_97_83)">
<path d="M292.044 234.107C297.059 237.104 302.564 239.359 308.399 240.818C314.166 242.253 320.161 242.983 326.236 242.983C334.59 242.983 342.5 241.593 349.76 238.847C357.111 236.067 363.573 231.885 368.976 226.405C374.355 220.947 378.641 214.077 381.718 205.999C384.761 197.977 386.311 188.612 386.311 178.152C386.311 167.693 384.772 158.327 381.718 150.306C378.652 142.262 374.503 135.414 369.386 129.968C364.212 124.465 358.091 120.306 351.185 117.595C344.369 114.917 337.12 113.561 329.666 113.561C318.281 113.561 308.445 116.284 300.432 121.639C296.945 123.975 293.89 126.539 291.303 129.307L291.486 82.445C291.486 77.0102 289.628 72.635 285.946 69.4106C282.425 66.3343 278.037 64.7847 272.908 64.7847H268.919V205.463L269.124 206.078C271.255 212.482 274.401 218.087 278.458 222.713C282.436 227.259 287.018 231.099 292.067 234.107H292.044ZM328.618 126.311C333.496 126.311 337.998 127.2 342.021 128.943C345.908 130.629 349.35 133.432 352.256 137.26C355.253 141.225 357.67 146.592 359.425 153.2C361.225 159.979 362.137 168.377 362.137 178.152C362.137 187.928 361.226 196.519 359.436 203.207C357.681 209.736 355.231 215.102 352.165 219.147C349.167 223.089 345.657 225.835 341.451 227.556C337.109 229.322 332.265 230.222 327.045 230.222C321.825 230.222 316.947 229.356 312.593 227.647C308.308 225.972 304.592 223.499 301.527 220.286C298.449 217.062 295.988 212.937 294.21 208.015C292.409 203.013 291.497 197.02 291.497 190.23V165.847C291.497 160.424 292.409 155.262 294.198 150.5C295.987 145.737 298.529 141.476 301.743 137.841C304.912 134.264 308.821 131.415 313.346 129.376C317.882 127.336 323.033 126.311 328.652 126.311H328.618Z" fill="#1C4835"/>
<path d="M307.864 262.956C301.458 265.086 295.851 268.231 291.224 272.287C286.676 276.264 282.835 280.844 279.826 285.891C276.829 290.905 274.572 296.408 273.113 302.241C271.677 308.007 270.948 314 270.948 320.073C270.948 328.424 272.338 336.331 275.085 343.589C277.866 350.938 282.049 357.399 287.531 362.799C292.99 368.177 299.863 372.461 307.943 375.537C315.967 378.579 325.336 380.129 335.798 380.129C346.261 380.129 355.63 378.591 363.653 375.537C371.7 372.472 378.549 368.325 383.997 363.209C389.502 358.037 393.662 351.918 396.375 345.014C399.053 338.2 400.409 330.954 400.409 323.502C400.409 312.12 397.686 302.287 392.329 294.277C389.992 290.791 387.428 287.737 384.658 285.151L431.535 285.333C436.972 285.333 441.348 283.476 444.574 279.796C447.651 276.275 449.201 271.889 449.201 266.761V262.774H308.479L307.864 262.979V262.956ZM385.012 335.853C383.314 339.738 380.521 343.179 376.692 346.085C372.725 349.081 367.357 351.497 360.747 353.251C353.966 355.051 345.566 355.963 335.787 355.963C326.008 355.963 317.414 355.051 310.724 353.263C304.194 351.508 298.826 349.058 294.779 345.993C290.836 342.997 288.089 339.488 286.368 335.283C284.602 330.942 283.701 326.1 283.701 320.882C283.701 315.663 284.567 310.787 286.277 306.434C287.952 302.15 290.426 298.436 293.64 295.371C296.865 292.283 300.991 289.834 305.915 288.056C310.918 286.256 316.913 285.345 323.706 285.345H348.096C353.521 285.345 358.684 286.256 363.448 288.045C368.212 289.834 372.475 292.374 376.11 295.587C379.689 298.755 382.539 302.663 384.579 307.186C386.619 311.721 387.644 316.871 387.644 322.488C387.644 327.365 386.756 331.865 385.012 335.887V335.853Z" fill="#1C4835"/>
<path d="M235.149 284.285C231.171 279.739 226.589 275.899 221.54 272.891C216.526 269.895 211.021 267.639 205.185 266.18C199.418 264.745 193.423 264.016 187.349 264.016C178.994 264.016 171.085 265.406 163.825 268.151C156.473 270.932 150.011 275.113 144.609 280.593C139.229 286.051 134.944 292.921 131.867 301C128.823 309.021 127.273 318.386 127.273 328.846C127.273 339.305 128.812 348.671 131.867 356.692C134.932 364.736 139.081 371.584 144.198 377.03C149.373 382.533 155.493 386.692 162.4 389.403C169.215 392.081 176.464 393.437 183.918 393.437C195.304 393.437 205.14 390.714 213.152 385.359C216.64 383.023 219.694 380.459 222.281 377.691L222.099 424.553C222.099 429.988 223.957 434.363 227.638 437.588C231.16 440.664 235.548 442.213 240.676 442.213H244.665V301.535L244.46 300.92C242.329 294.516 239.183 288.911 235.126 284.285H235.149ZM184.966 380.676C180.088 380.676 175.587 379.787 171.563 378.044C167.677 376.358 164.235 373.555 161.329 369.727C158.331 365.761 155.915 360.395 154.16 353.787C152.359 347.007 151.447 338.61 151.447 328.834C151.447 319.059 152.359 310.468 154.148 303.78C155.903 297.251 158.354 291.885 161.42 287.84C164.417 283.898 167.928 281.152 172.133 279.431C176.475 277.665 181.319 276.765 186.539 276.765C191.759 276.765 196.637 277.631 200.991 279.34C205.276 281.015 208.992 283.487 212.058 286.7C215.135 289.925 217.597 294.049 219.375 298.971C221.176 303.973 222.087 309.966 222.087 316.757V341.14C222.087 346.563 221.176 351.724 219.386 356.487C217.597 361.25 215.055 365.511 211.841 369.145C208.673 372.723 204.764 375.572 200.239 377.611C195.703 379.65 190.551 380.676 184.932 380.676H184.966Z" fill="#1C4835"/>
<path d="M207.089 238.733C213.494 236.602 219.101 233.458 223.729 229.401C228.276 225.425 232.117 220.845 235.126 215.797C238.123 210.784 240.38 205.281 241.839 199.447C243.275 193.682 244.004 187.689 244.004 181.616C244.004 173.264 242.614 165.357 239.867 158.099C237.086 150.75 232.903 144.29 227.421 138.89C221.962 133.512 215.09 129.228 207.009 126.151C198.985 123.109 189.617 121.56 179.154 121.56C168.691 121.56 159.323 123.098 151.299 126.151C143.252 129.216 136.403 133.364 130.955 138.479C125.45 143.652 121.29 149.771 118.577 156.675C115.899 163.489 114.543 170.735 114.543 178.187C114.543 189.569 117.267 199.402 122.623 207.411C124.96 210.898 127.524 213.951 130.294 216.538L83.4168 216.356C77.9803 216.356 73.6037 218.213 70.3783 221.893C67.301 225.414 65.751 229.8 65.751 234.927V238.915H206.473L207.089 238.71V238.733ZM129.929 165.836C131.627 161.95 134.42 158.51 138.249 155.604C142.215 152.608 147.583 150.192 154.194 148.438C160.975 146.637 169.375 145.726 179.154 145.726C188.933 145.726 197.526 146.637 204.217 148.426C210.747 150.181 216.115 152.63 220.161 155.695C224.105 158.692 226.852 162.201 228.573 166.405C230.339 170.746 231.239 175.589 231.239 180.807C231.239 186.025 230.373 190.902 228.664 195.254C226.988 199.538 224.515 203.253 221.301 206.318C218.076 209.405 213.95 211.855 209.026 213.632C204.023 215.433 198.028 216.344 191.235 216.344H166.845C161.42 216.344 156.257 215.433 151.493 213.644C146.729 211.855 142.466 209.314 138.83 206.101C135.252 202.934 132.402 199.026 130.362 194.502C128.322 189.968 127.296 184.818 127.296 179.201C127.296 174.324 128.185 169.824 129.929 165.802V165.836Z" fill="#1C4835"/>
<path d="M178.425 24.5535C178.915 47.9904 179.485 74.5606 199.042 93.3033C206.211 100.174 214.998 106.463 226.703 113.094C228.356 114.04 230.191 114.507 232.026 114.507C233.736 114.507 235.457 114.097 237.029 113.276C240.289 111.567 242.443 108.366 242.774 104.697C243.811 93.2235 245.292 64.4771 236.619 45.1761C228.356 26.7981 207.009 10.186 195.019 1.92555C191.657 -0.38738 187.349 -0.615255 183.759 1.32168C180.168 3.25861 178.003 7.00715 178.094 11.0861L178.311 20.1213C178.345 21.5911 178.379 23.0723 178.413 24.5763L178.425 24.5535ZM222.065 51.7048C227.695 64.2265 227.946 83.2312 227.433 94.9781C220.389 90.5688 214.782 86.2847 210.086 81.7956C195.293 67.6218 194.837 45.5635 194.381 24.2231C194.358 23.209 194.335 22.195 194.312 21.1809C203.704 28.4957 216.89 40.2085 222.065 51.7048Z" fill="#1C4835"/>
<path d="M510.746 179.759C508.843 176.147 505.116 173.959 501.036 173.994L491.998 174.119C490.528 174.142 489.035 174.153 487.541 174.176C464.097 174.427 437.519 174.711 418.565 194.058C411.624 201.145 405.242 209.872 398.472 221.505C396.625 224.696 396.511 228.547 398.187 231.828C399.862 235.11 403.042 237.286 406.712 237.662C411.168 238.118 418.235 238.653 426.349 238.653C439.103 238.653 454.455 237.309 466.308 232.124C484.783 224.058 501.617 202.888 510.006 190.993C512.353 187.666 512.638 183.348 510.735 179.747L510.746 179.759ZM459.926 217.518C447.343 223.021 428.333 223.066 416.593 222.428C421.084 215.433 425.415 209.872 429.962 205.224C444.289 190.594 466.365 190.355 487.712 190.127C488.75 190.127 489.775 190.104 490.756 190.093C483.347 199.402 471.483 212.47 459.926 217.518Z" fill="#1C4835"/>
<path d="M340.312 487.435C339.822 463.998 339.252 437.428 319.694 418.685C312.525 411.815 303.738 405.526 292.033 398.883C288.83 397.071 284.966 397.003 281.707 398.712C278.447 400.421 276.293 403.623 275.963 407.292C274.925 418.765 273.444 447.523 282.117 466.812C290.38 485.191 311.727 501.803 323.717 510.063C325.564 511.339 327.695 511.977 329.837 511.977C331.593 511.977 333.359 511.544 334.978 510.667C338.568 508.73 340.733 504.981 340.642 500.903L340.426 491.867C340.391 490.398 340.357 488.916 340.323 487.412L340.312 487.435ZM296.671 460.284C291.041 447.762 290.79 428.757 291.303 417.01C298.347 421.42 303.954 425.704 308.65 430.204C323.444 444.378 323.9 466.436 324.355 487.777C324.378 488.791 324.401 489.805 324.424 490.819C315.032 483.504 301.846 471.792 296.671 460.295V460.284Z" fill="#1C4835"/>
<path d="M105.288 264.711C93.8223 263.548 65.0784 261.771 45.6802 270.236C27.2052 278.303 10.3714 299.473 1.98304 311.368C-0.364803 314.695 -0.649735 319.013 1.25361 322.613C3.13416 326.18 6.78129 328.379 10.8045 328.379C10.8501 328.379 10.9071 328.379 10.9641 328.379L20.0021 328.253C21.4724 328.231 22.954 328.219 24.4471 328.196C47.8913 327.946 74.4811 327.661 93.4348 308.314C100.376 301.227 106.758 292.5 113.528 280.867C115.375 277.677 115.489 273.825 113.813 270.544C112.138 267.263 108.958 265.086 105.288 264.711ZM82.0375 297.148C67.7111 311.778 45.6346 312.017 24.2875 312.245C23.2618 312.245 22.236 312.268 21.2444 312.279C28.6527 302.971 40.5172 289.902 52.0741 284.855C61.5224 280.719 74.5951 279.67 85.5023 279.67C89.1152 279.67 92.4888 279.784 95.4179 279.944C90.9274 286.94 86.5964 292.5 82.0489 297.148H82.0375Z" fill="#1C4835"/>
</g>
<defs>
<clipPath id="clip0_97_83">
<rect width="512" height="512" fill="white"/>
</clipPath>
</defs>
</svg>
